<svg width="44" height="44" viewBox="0 0 44 44" fill="none" xmlns="http://www.w3.org/2000/svg">
<rect width="44" height="44" rx="4" fill="#3B464B"/>
<path d="M22 13.75C19.9289 13.75 18.25 15.4289 18.25 17.5C18.25 19.5711 19.9289 21.25 22 21.25C24.0711 21.25 25.75 19.5711 25.75 17.5C25.75 15.4289 24.0711 13.75 22 13.75Z" fill="white"/>
<path d="M18 23.25C15.9289 23.25 14.25 24.9289 14.25 27V28.1883C14.25 28.9415 14.7959 29.5837 15.5393 29.7051C19.8181 30.4037 24.1819 30.4037 28.4607 29.7051C29.2041 29.5837 29.75 28.9415 29.75 28.1883V27C29.75 24.9289 28.0711 23.25 26 23.25H25.6591C25.4746 23.25 25.2913 23.2792 25.1159 23.3364L24.2504 23.6191C22.7881 24.0965 21.2119 24.0965 19.7496 23.6191L18.8841 23.3364C18.7087 23.2792 18.5254 23.25 18.3409 23.25H18Z" fill="white"/>
</svg>
