<svg xmlns="http://www.w3.org/2000/svg">
    <symbol viewBox="0 0 44 44" id="avatar">
        <rect width="44" height="44" rx="4" fill="#3B464B"/>
        <path d="M22 13.75C19.9289 13.75 18.25 15.4289 18.25 17.5C18.25 19.5711 19.9289 21.25 22 21.25C24.0711 21.25 25.75 19.5711 25.75 17.5C25.75 15.4289 24.0711 13.75 22 13.75Z" fill="white"/>
        <path d="M18 23.25C15.9289 23.25 14.25 24.9289 14.25 27V28.1883C14.25 28.9415 14.7959 29.5837 15.5393 29.7051C19.8181 30.4037 24.1819 30.4037 28.4607 29.7051C29.2041 29.5837 29.75 28.9415 29.75 28.1883V27C29.75 24.9289 28.0711 23.25 26 23.25H25.6591C25.4746 23.25 25.2913 23.2792 25.1159 23.3364L24.2504 23.6191C22.7881 24.0965 21.2119 24.0965 19.7496 23.6191L18.8841 23.3364C18.7087 23.2792 18.5254 23.25 18.3409 23.25H18Z" fill="white"/>
    </symbol>
    <symbol viewBox="1 0 22 22" id="icon1" width="24" height="24">
        <path stroke-width=".2" d="M11.5 22C5.71 22 1 17.29 1 11.5S5.71 1 11.5 1 22 5.71 22 11.5 17.29 22 11.5 22zm0-20.16c-5.327 0-9.66 4.333-9.66 9.66s4.333 9.66 9.66 9.66 9.66-4.333 9.66-9.66-4.333-9.66-9.66-9.66z"></path><path stroke-width=".2" d="M11.5 22a10.67 10.67 0 0 1-6.164-1.95.319.319 0 0 1-.133-.301.319.319 0 0 1 .208-.257c2.676-.978 3.108-1.772 3.108-3.293 0-.402-.092-.534-.257-.774-.219-.315-.518-.746-.729-1.872-.03-.162-.057-.175-.204-.245-.391-.186-.75-.454-.845-1.675 0-.59.207-.918.378-1.088-.038-.21-.099-.573-.156-.968-.293-1.77-.306-3.936 2.216-4.943 2.197-.88 3.951-.4 4.502.174.39.012 1.395.112 2.095.916 1.077 1.236.734 4.054.617 4.818.171.166.38.489.38 1.067-.094 1.245-.454 1.513-.846 1.699-.147.07-.173.082-.204.245-.21 1.126-.51 1.557-.728 1.872-.166.24-.257.372-.257.774 0 1.521.432 2.315 3.108 3.293a.318.318 0 0 1 .075.558A10.67 10.67 0 0 1 11.5 22zm-5.46-2.309a10.822 10.822 0 0 0 5.46 1.459c1.942 0 3.817-.502 5.46-1.459-2.318-.885-3.046-1.778-3.046-3.573 0-.584.186-.837.382-1.104.203-.276.455-.619.648-1.588.093-.468.385-.598.577-.684.208-.093.421-.189.497-1.12 0-.474-.23-.603-.239-.608-.123-.066-.202-.205-.176-.334.165-.825.438-3.399-.455-4.365-.609-.66-1.569-.678-1.752-.671-.03-.003-.06-.003-.09-.01-.086-.02-.233-.09-.277-.163-.182-.289-1.763-.87-3.944-.05-2.156.813-2.16 2.554-1.88 4.15.091.594.192 1.107.193 1.11a.306.306 0 0 1-.189.338c.002 0-.226.13-.226.625.075.908.289 1.004.496 1.096.192.087.485.217.577.685.193.969.445 1.312.648 1.587.197.268.383.52.383 1.105 0 1.797-.728 2.69-3.047 3.574z"></path>
    </symbol>
    <symbol viewBox="0 0 24 24" id="icon2" width="24" height="24">
        <path stroke-width=".2" d="M23 12c0-1.611-1.546-3-3.446-3-1.9 0-3.446 1.389-3.446 3 0 1.386 1.363 3.928 2.892 4.227v1.36C19 19.83 16.633 22 14 22c-1.198 0-3.466-.878-4.409-1.842-.774-.791-1.284-1.792-1.419-2.76.409-.154.755-.415.99-.76l.063-.093.007-.01 1.16-1.777c2.524-.824 3.608-2.633 3.608-4.73V2.152C14 1.49 13.977 1 13.12 1h-2.257V.674C10.863.302 10.442 0 10 0S9 .302 9 .674v1.91c0 .373.62 1.675 1.063 1.675.442 0 .8-1.302.8-1.674v-.282h2.21v7.726c0 1-.579 1.95-1.629 2.677a6.376 6.376 0 0 1-1.91.88C8.848 13.781 7.768 14 7 14c-.841 0-1.317-.24-2.06-.473l-.039-.012a6.3 6.3 0 0 1-1.672-.809C2.18 11.98 1 11.028 1 10.03V2h2v1c0 .372.558 1 1 1 .442 0 1-1.043 1-1.415V.674C5 .302 4.442 0 4 0c-.442 0-1 .628-1 1H1c-.856 0-1 .492-1 1.15v7.879c0 2.04 1.667 3.811 4.086 4.662l1.32 1.947c.266.394.679.678 1.163.82.148 1.259.78 2.53 1.786 3.557C9.608 22.295 12.315 23 14 23c3.516 0 6-2.428 6-5.412v-1.372c1.501-.316 3-2.847 3-4.216zM7.738 15.087c.347 0 .689-.013 1.024-.037l-.489.592-.065.075c-.16.186-.422.206-.527.206-.106 0-.368-.02-.527-.206l-.583-.679c.381.032.77.049 1.167.049zM19.5 15a2.503 2.503 0 0 1-2.5-2.5c0-1.379 1.122-2.5 2.5-2.5 1.379 0 2.5 1.121 2.5 2.5S20.879 15 19.5 15z"></path>
    </symbol>
    <symbol viewBox="0 0 20 22" id="icon3" width="24" height="24">
        <path stroke-width=".2" d="M14 11c1.2-1.4 1.5-3.3 1.5-4.9 0-2.8-2.2-5.1-5-5.1s-5 2.3-5 5.1c0 1.6.8 3.7 2 5.1C.2 13.7.9 20.6 1.2 22h.7c-.3-3 .8-7 3-8.8.1 1 .4 1.9.8 2.7-1 .7-2.1 2.9-1.7 4.1l1 1h1v-1l-1-1c-.4-1.1.6-2.4 1.6-2.8 1-.4 2 .8 2.4 1.8v1h1v-2c-1-1-2-2-3.5-1.6C6.1 14.5 5.1 14 5 13c.7-.5 2.3-1.3 3.2-1.6.7.7 1.9 1.6 2.8 1.6.9 0 1.5-.9 2.2-1.6 1.1.3 2 1 2.8 1.6-.2.9-.5 1.2-1 2-1.6-.2-2 1-2 2s1 2 2 2 2-1 2-2-1-1.77-1-2l1-1c2 2 2 4 2.2 7 0 0-.1.5-.1.7h.8c1-4.5-.9-8.7-5.9-10.7zm-4-9c2 0 3 1 4 2-1.7 1.2-3 0-3 0-1.2-.7-2.9-.8-4 0l-.8 1.1C6.8 3.1 8.325 2 10 2zm1 10c-2.4 0-4.8-3.5-4.8-5.9v-.2L8 5c.9-.6 2-.6 3 0 0 0 2 1.2 4 0 .1.4-.1.7-.1 1.1-.1 2.4-1.5 5.9-3.9 5.9z"></path>
    </symbol>
    <symbol viewBox="0 0 21 25" id="icon4" width="24" height="24">
        <g><path stroke-width=".2" d="M13 6V3c.755-.158 1.5-.73 1.5-1.5 0-.89-.676-1.5-1.62-1.5H7.09C6.634 0 6.32.166 6 .469c-.32.302-.61.703-.61 1.131 0 .428.177.83.498 1.131.231.218.801.364 1.112.429v2.517C2.984 6.993 0 10.993 0 15c0 5.197 4.483 9 10 9h.033C15.529 23.984 20 20.179 20 15c0-4.007-2.98-7.682-7-9zm-3 17c-.382.001-.63.043-1 0-4.366-.512-7.868-4.157-7.868-8.422 0-3.554 2.393-6.726 5.954-7.894.456-.15.763-.554.763-1.008V3h1.002c.006 0 .012.002.018 0 .311 0 .631-.206.631-.5 0-.294-.32-.367-.632-.367L7 2c-.312 0-.476-.106-.477-.4 0-.294.165-.6.477-.6h6c.308 0 .477.29.477.6 0 .294-.165.4-.477.4l-1.867.133c-.312 0-.633.073-.633.367s.321.5.633.5h1.018v2.676c0 .453.392 1.174.849 1.324 3.56 1.167 6 4.446 6 8 0 4.593-4.126 7.986-9 8z"></path><path stroke-width=".2" d="M13.857 10c-1.152 0-2.032 1.19-2.74 1.849a.535.535 0 0 0-.035.745c.193.216.844.656.918.406.187-.629 1-2 1.857-2.007 1.288-.011 2.278 1.568 2.238 2.975-.056 1.21-1.038 2.177-2.238 2.177-1.315 0-2.336-1.289-3.417-2.654C9.335 12.097 8.607 10 6.798 10c-.86 0-2.167.379-2.782.993-.646.644-1.058 2.024-1.013 3.031C3.126 17.9 6.247 21 10.068 21H10a6.998 6.998 0 0 0 7-7.029C17.008 12.23 15.714 10 13.857 10zm-3.772 9.945L10 20c-3.575 0-5.978-2.907-6-6-.02-2.808 1.87-3.007 2.798-3.007.927 0 1.832 1.892 2.838 3.162 1.185 1.497 2.412 3.046 4.221 3.046.513 0 .999-.121 1.431-.337-1.042 1.834-2.984 3.073-5.203 3.08z"></path><path stroke-width=".2" d="M6.667 14.88c0 .265-.213.48-.477.48a.478.478 0 0 1-.476-.48c0-.265.214-.48.476-.48.264 0 .477.215.477.48zM9.524 16.8c0 .265-.213.48-.476.48a.478.478 0 0 1-.477-.48c0-.265.214-.48.477-.48s.476.215.476.48zM6.667 17.76c0 .265-.213.48-.477.48a.478.478 0 0 1-.476-.48c0-.265.214-.48.476-.48.264 0 .477.215.477.48z"></path></g>
    </symbol>
    <symbol viewBox="0 0 24 24" id="icon5" width="24" height="24">
        <g><path stroke-width=".4" d="M21 4c-.578-.094-1.693.323-2.248.199-.174-.039-.32.557-.148.596.543.121 1.102.23 1.666.323C20.352 5.936 20 10 20 13c0 2.108-1.946 3.467-3.172 4.828-1.494 1.658-3.455 2.81-5.828 3.426-2.373-.615-4.334-1.768-5.828-3.426-1.226-1.361-2.15-3.072-2.747-5.086C1.4 9.286 1.648 5.936 1.73 5.118 7.166 4.218 10.126 2.651 11 2c.62.46 4.49 2.013 8 3 .17.048 1.95-.838 2-1 .05-.162-5 0-9-3-.2-.15-1.693-.184-2 0-5 3-8.013 2.84-9 3-.237.039.024.752 0 .978C.927 5.656 1 9 1 13c0 1 2.395 3.797 3.682 5.226 1.586 1.76 3.664 2.98 6.177 3.626.046.012.094.148.141.148.047 0 .095-.136.14-.148 2.514-.646 4.592-1.866 6.178-3.626C18.605 16.797 21 14 21 13c0-4 .073-7.322 0-8-.025-.227.237-.961 0-1z"></path><path stroke-width=".5" d="M13 7H9c.5 0 0 .679 0 .995V9H6v5h3v2h4c-.041-.11-.041-.776 0-2h3v-4-1h-3V7.995 7zm2 3v3h-3v2h-2v-2H7v-3h3V8h2v2h3z"></path></g>
    </symbol>
    <symbol viewBox="0 0 24 24" id="icon6" width="24" height="24">
        <path d="M10.537 1.966C10.871 1.631 11.414 1.63 11.749 1.965L14.324 4.539C14.485 4.699 14.575 4.918 14.575 5.145C14.575 5.373 14.485 5.591 14.324 5.752L11.748 8.321C11.413 8.655 10.87 8.655 10.536 8.32C10.202 7.985 10.202 7.442 10.537 7.107L11.639 6.009C7.783 6.197 4.714 9.383 4.714 13.286C4.714 17.309 7.976 20.571 12 20.571C15.894 20.571 19.075 17.516 19.276 13.673C19.3 13.2 19.704 12.837 20.176 12.861C20.649 12.886 21.012 13.289 20.988 13.762C20.74 18.512 16.811 22.286 12 22.286C7.029 22.286 3 18.256 3 13.286C3 8.432 6.843 4.475 11.652 4.292L10.537 3.178C10.202 2.843 10.202 2.3 10.537 1.966Z"></path><path d="M15.606 10.537C15.941 10.871 15.941 11.414 15.606 11.749L11.32 16.035C11.16 16.195 10.942 16.286 10.714 16.286C10.487 16.286 10.269 16.195 10.108 16.035L8.394 14.32C8.059 13.986 8.059 13.443 8.394 13.108C8.729 12.773 9.271 12.773 9.606 13.108L10.714 14.216L14.394 10.537C14.729 10.202 15.271 10.202 15.606 10.537Z"></path>
    </symbol>
    <symbol viewBox="0 0 24 24" id="icon7" width="24" height="24">
        <g><path stroke-width=".2" d="M5 1c2.518-.786 4.035.458 5 1 .965-.542 3.481-1.786 6-1 3.335 1.04 4.658 6.092 1.983 9.915-1.267 1.81-.804 2.606-.983 4.085-.131 1.082-.434 2.691-1 4-.38.88-1.384 1.997-2.181 1.997L14 21c-.64-.015-1.36-.636-1.876-2.007-.264-.7-.432-1.524-.595-2.322-.294-1.436-.598-2.92-1.36-2.925h-.005c-.755 0-.871.818-1.164 2.254-.163.8.263 2.302 0 3-.517 1.373-1.36 1.985-2 2h-.477c-.795 0-1.334-1.008-1.716-1.89-.54-1.25-.683-2.366-.82-3.446-.193-1.52-.375-2.956-1.631-4.753C-.35 7.038 1.721 2.023 5 1zm-1.71 9.735c1.364 1.952 1.567 3.548 1.763 5.093.136 1.073.265 2.086.763 3.236C6.406 20.427 7 20 7 20l-.207.474c.016 0 .385-.026.938-1.494.242-.64.112-1.21.269-1.98.176-.864-.275-2.363 0-3 .351-.816 1.344-2 2-2 .004 0 0-1 1 0 .488.488 1 2 .963 2.464-.057.702.44 1.451.617 2.313.157.768.32 1.562.561 2.203.552 1.465.844 1.02.859 1.02.036 0 .461.44 1.057-.936.522-1.206.813-1.99.943-3.064.182-1.506-.327-4.01 1-6 2-3 1.762-7.138-1-8-2.402-.75-5.26.547-6 1-.741-.453-2.599-1.749-5-1-2.458.766-3.287 4.874-2 8 .188.456-.01.305.29.735z"></path><path stroke-width=".2" d="M8.265 4.158c.308 0 .559.236.559.526 0 .29-.25.527-.56.527-.308 0-.558-.236-.558-.527 0-.29.25-.526.559-.526zM4.766 6.537c.19-.415.443-.797.75-1.134.184-.201.549-.253.816-.116.268.137.337.41.154.611a3.613 3.613 0 0 0-.61.925c-.585 1.272-.432 2.756.418 4.072.141.218.02.481-.272.587-.292.106-.642.015-.784-.204-.985-1.523-1.157-3.251-.472-4.741z"></path></g>
    </symbol>
    <symbol id="mars" viewBox="0 0 448 512">
        <path d="M446.8 41.89c-1.621-3.918-4.742-7.039-8.66-8.66c-1.955-.8086-4.047-1.23-6.129-1.23L304 32C295.2 32 288 39.16 288 48S295.2 64 304 64h89.38l-104.8 104.8C258.1 143.3 218.8 128 176 128C78.8 128 0 206.8 0 304S78.8 480 176 480S352 401.2 352 304c0-42.84-15.34-82.08-40.78-112.6L416 86.63V176C416 184.8 423.2 192 432 192S448 184.8 448 176v-128C448 45.92 447.6 43.85 446.8 41.89zM320 304c0 79.4-64.6 144-144 144S32 383.4 32 304S96.6 160 176 160S320 224.6 320 304z"></path>
    </symbol>
    <symbol id="venus" viewBox="0 0 384 512">
        <path d="M368 176c0-97.2-78.8-176-176-176c-97.2 0-176 78.8-176 176c0 91.8 70.31 167.1 160 175.2V400h-64C103.2 400 96 407.2 96 416s7.156 16 16 16h64v64c0 8.844 7.156 16 16 16s16-7.156 16-16v-64h64c8.844 0 16-7.156 16-16s-7.156-16-16-16h-64v-48.81C297.7 343.1 368 267.8 368 176zM48 176C48 96.6 112.6 32 192 32s144 64.6 144 144S271.4 320 192 320S48 255.4 48 176z"></path>
    </symbol>
    <symbol id="circle-plus" viewBox="0 0 512 512">
        <path d="M240 352V272H160C151.2 272 144 264.8 144 256C144 247.2 151.2 240 160 240H240V160C240 151.2 247.2 144 256 144C264.8 144 272 151.2 272 160V240H352C360.8 240 368 247.2 368 256C368 264.8 360.8 272 352 272H272V352C272 360.8 264.8 368 256 368C247.2 368 240 360.8 240 352zM512 256C512 397.4 397.4 512 256 512C114.6 512 0 397.4 0 256C0 114.6 114.6 0 256 0C397.4 0 512 114.6 512 256zM256 32C132.3 32 32 132.3 32 256C32 379.7 132.3 480 256 480C379.7 480 480 379.7 480 256C480 132.3 379.7 32 256 32z"></path>
    </symbol>
    <symbol id="caret-down" viewBox="0 0 320 512">
        <path d="M287.1 192H32c-28.37 0-42.74 34.5-22.62 54.63l127.1 128c12.5 12.5 32.75 12.5 45.25 0l127.1-128C330.7 226.5 316.5 192 287.1 192zM159.1 352L32.01 224h255.9L159.1 352z"></path>
    </symbol>
    <symbol id="caret-up" viewBox="0 0 320 512">
        <path d="M32.01 320h255.1c28.37 0 42.74-34.5 22.62-54.63l-127.1-128c-12.5-12.5-32.75-12.5-45.25 0l-127.1 128C-10.73 285.5 3.519 320 32.01 320zM160 160l127.1 128H32.04L160 160z"></path>
    </symbol>
</svg>